<svg id="Layer_1" enable-background="new 0 0 512 512" height="512" viewBox="0 0 512 512" width="512" xmlns="http://www.w3.org/2000/svg"><g><path d="m403 224h-294c-2.761 0-5 2.239-5 5v54c0 2.761 2.239 5 5 5h294c2.761 0 5-2.239 5-5v-54c0-2.761-2.239-5-5-5z"/><path d="m448 0h-384c-35.346 0-64 28.654-64 64v59c0 2.761 2.239 5 5 5h442.551c8.618 0 16.03 6.626 16.431 15.234.428 9.189-6.888 16.766-15.982 16.766h-443c-2.761 0-5 2.239-5 5v59c0 35.346 28.654 64 64 64h3c2.761 0 5-2.239 5-5v-75c0-8.837 7.163-16 16-16h336c8.837 0 16 7.163 16 16v75c0 2.761 2.239 5 5 5h3c35.346 0 64-28.654 64-64v-160c0-35.346-28.654-64-64-64zm-80 88c-8.84 0-16-7.16-16-16s7.16-16 16-16 16 7.16 16 16-7.16 16-16 16zm64 0c-8.84 0-16-7.16-16-16s7.16-16 16-16 16 7.16 16 16-7.16 16-16 16z"/><path d="m128 304c-8.837 0-16 7.164-16 16v96c0 17.645-14.355 32-32 32-8.837 0-16 7.164-16 16s7.163 16 16 16c35.29 0 64-28.71 64-64v-96c0-8.836-7.163-16-16-16z"/><path d="m440 480c-17.645 0-32-14.355-32-32v-104c0-8.836-7.163-16-16-16s-16 7.164-16 16v104c0 35.29 28.71 64 64 64 8.837 0 16-7.164 16-16s-7.163-16-16-16z"/><path d="m304 480c-17.645 0-32-14.355-32-32v-88c0-8.836-7.163-16-16-16s-16 7.164-16 16v88c0 35.29 28.71 64 64 64 8.837 0 16-7.164 16-16s-7.163-16-16-16z"/><path d="m192 328c-8.837 0-16 7.164-16 16v120c0 8.836 7.163 16 16 16s16-7.164 16-16v-120c0-8.836-7.163-16-16-16z"/><path d="m320 304c-8.837 0-16 7.164-16 16v88c0 8.836 7.163 16 16 16s16-7.164 16-16v-88c0-8.836-7.163-16-16-16z"/></g></svg>